<svg width="20" height="19" viewBox="0 0 20 19" fill="none" xmlns="http://www.w3.org/2000/svg">
<path d="M9.61932 2.41417L10 2.8612L10.3807 2.41417C11.3789 1.24197 12.9114 0.5 14.5 0.5C17.3039 0.5 19.5 2.69614 19.5 5.5C19.5 7.22576 18.7284 8.83074 17.2692 10.6147C15.8043 12.4057 13.6992 14.3155 11.1141 16.6596L11.1134 16.6603L9.99872 17.675L8.88626 16.67L8.88519 16.669L8.87348 16.6584C6.29415 14.3144 4.19348 12.4055 2.73088 10.6161C1.27162 8.83077 0.5 7.22577 0.5 5.5C0.5 2.69614 2.69614 0.5 5.5 0.5C7.08861 0.5 8.62112 1.24197 9.61932 2.41417ZM3.78512 10.3176C5.18867 11.9576 7.18798 13.7689 9.5552 15.9123L9.64645 16.0036L10 16.3571L10.3536 16.0036L10.4448 15.9123C12.812 13.7689 14.8113 11.9576 16.2149 10.3176C17.6154 8.68114 18.5 7.12956 18.5 5.5C18.5 3.22386 16.7761 1.5 14.5 1.5C12.8887 1.5 11.3081 2.45568 10.6133 3.86H9.39479C8.69259 2.45702 7.11294 1.5 5.5 1.5C3.22386 1.5 1.5 3.22386 1.5 5.5C1.5 7.12956 2.38462 8.68114 3.78512 10.3176Z" fill="#2D9CEE" stroke="#2D9CEE"/>
</svg>
